PathFileType	4	(X/Y/Z)	SUBJ62_2_walk_RCNL2025.trc
DataRate	CameraRate	NumFrames	NumMarkers	Units	OrigDataRate	OrigDataStartFrame	OrigNumFrames
100	100	4	25	mm	100	268	306
Frame#	Time	R_Shoulder			L_Shoulder			C7			J_Notch			R_Elbow			L_Elbow			R_Wrist			L_Wrist			R_Asis			L_Asis			Sacral			Thoracic			Sternum			R_Thigh_Lateral			R_Knee_Lateral			R_Shank_Lateral			R_Ankle_Lateral			R_Heel			R_Toe			L_Thigh_Lateral			L_Knee_Lateral			L_Shank_Lateral			L_Ankle_Lateral			L_Heel			L_Toe		
		X1	Y1	Z1	X2	Y2	Z2	X3	Y3	Z3	X4	Y4	Z4	X5	Y5	Z5	X6	Y6	Z6	X7	Y7	Z7	X8	Y8	Z8	X9	Y9	Z9	X10	Y10	Z10	X11	Y11	Z11	X12	Y12	Z12	X13	Y13	Z13	X14	Y14	Z14	X15	Y15	Z15	X16	Y16	Z16	X17	Y17	Z17	X18	Y18	Z18	X19	Y19	Z19	X20	Y20	Z20	X21	Y21	Z21	X22	Y22	Z22	X23	Y23	Z23	X24	Y24	Z24	X25	Y25	Z25
268	2.67000000	1740.053467	1266.395752	-14.635735	1704.451416	1275.898926	-351.599854	1652.166016	1337.876099	-177.855392	1781.879883	1249.468994	-188.036789	1792.798340	980.851685	66.974258	1604.035034	985.044312	-396.434204	1968.962219	850.801147	25.336336	1604.771545	764.303009	-383.443451	1767.086304	853.995361	-37.336246	1792.175171	861.280457	-297.880554	1609.094604	854.928467	-186.520370	1588.288696	1140.546021	-177.545807	1800.773804	1050.693604	-184.356888	1645.915283	473.537048	5.203519	1642.442139	415.479279	-73.338387	1598.875000	240.628357	-43.625938	1543.946533	61.204781	-125.403069	1492.160767	52.962524	-168.072418	1644.449585	38.931507	-133.548416	1851.373169	476.377045	-355.183685	1862.836304	413.341370	-307.235931	1915.781494	229.911743	-341.849457	1948.127441	61.135616	-279.270782	1889.448120	44.434174	-234.984558	2055.396973	69.750732	-266.987793
269	2.68000000	1750.408325	1264.655884	-15.290696	1715.328735	1273.740967	-352.459656	1662.858521	1335.890015	-178.756943	1792.690308	1247.587036	-188.613083	1805.564941	979.832520	66.609108	1611.535156	983.781921	-395.433716	1983.832642	853.135284	23.302986	1609.230469	762.957550	-382.135345	1777.184814	852.214539	-37.512501	1804.315430	859.108521	-298.004730	1620.406738	853.049866	-188.115891	1599.071533	1138.541870	-178.597565	1811.815430	1048.821167	-184.608490	1652.748535	472.815918	4.743948	1648.559204	414.767120	-73.904915	1602.508423	240.639069	-44.351093	1544.619751	62.134514	-126.055305	1492.833618	54.509483	-168.903412	1644.747803	39.013165	-133.704758	1859.748169	473.014771	-354.611145	1872.604492	410.944336	-306.532227	1933.552002	229.943497	-341.517792	1975.062256	62.314663	-278.666443	1917.009521	43.292980	-234.146820	2082.227539	74.873436	-267.066315
270	2.69000000	1760.805176	1262.909668	-16.031717	1726.298096	1271.608276	-353.423981	1673.616333	1333.914917	-179.771942	1803.578613	1245.735107	-189.285675	1818.094116	978.749451	66.152786	1619.458862	982.471375	-394.555603	1998.203186	855.143890	21.326594	1614.312439	761.602509	-380.957993	1787.438110	850.444824	-37.763741	1816.542236	856.879150	-298.167206	1631.825073	851.185608	-189.754379	1609.952148	1136.548584	-179.749725	1822.952393	1046.967529	-184.946167	1659.828247	472.073853	4.253368	1654.979004	414.048981	-74.471985	1606.301758	240.704086	-45.064888	1545.344360	63.227367	-126.637848	1493.551270	56.295803	-169.632309	1645.059937	39.115131	-133.833252	1868.044678	469.693420	-354.182007	1882.532959	408.657715	-305.957886	1950.402222	229.883392	-341.172821	1999.503174	63.561596	-277.990051	1942.156738	42.686481	-233.153412	2106.542969	79.349922	-267.248322
271	2.70000000	1771.270142	1261.198975	-16.864058	1737.374268	1269.536377	-354.493652	1684.452148	1331.984497	-180.903900	1814.556152	1243.946533	-190.060715	1830.349609	977.618225	65.609024	1627.833130	981.137756	-393.829803	2012.049927	856.815399	19.414330	1620.075073	760.263489	-379.947311	1797.890625	848.709412	-38.104805	1828.834595	854.650208	-298.367126	1643.355835	849.379272	-191.409760	1620.946655	1134.592529	-180.990387	1834.201538	1045.169434	-185.376587	1667.105225	471.356812	3.741227	1661.715332	413.345825	-75.004959	1610.234131	240.852676	-45.703842	1546.136230	64.514771	-127.082123	1494.311768	58.351692	-170.178970	1645.385742	39.239300	-133.909317	1876.511719	466.566376	-353.873047	1892.776978	406.538269	-305.498901	1966.313354	229.610382	-340.795074	2021.269653	64.585579	-277.241180	1964.639404	42.329372	-232.024170	2128.206055	82.849289	-267.437378
